<svg width="31" height="32" viewBox="0 0 31 32" fill="none" xmlns="http://www.w3.org/2000/svg">
<path class="wing" d="M7.33469 24.3631C10.5763 22.8222 13.3584 21.5011 16.1425 20.178C11.3129 19.6068 6.32117 20.9484 1.53875 17.9734C6.36015 17.4105 10.8123 16.8907 15.2644 16.3709C10.0408 14.4211 3.96381 14.9224 0 9.95852C5.04708 10.8646 10.0942 11.7686 15.1413 12.6747C10.5373 9.47364 4.55058 8.23474 1.86701 2.0669C7.15209 4.68032 12.1027 7.12937 17.0534 9.57637C14.9258 6.60546 11.4565 4.56526 11.3088 0C14.7535 2.8312 17.9664 5.47133 21.327 8.23679C21.4932 7.12526 21.6286 6.2192 21.7661 5.31313C23.2946 7.59371 25.2518 9.13875 27.1866 10.8358C29.4988 12.8678 31.0191 15.7504 30.6703 19.1363C30.6292 19.5411 30.3359 20.0855 29.9973 20.2704C26.3228 22.286 24.8046 25.5836 24.4127 29.553C24.2752 30.9501 23.5018 31.6322 22.0328 32C22.2421 31.3179 22.3918 30.8227 22.558 30.2824C21.4152 30.6769 20.332 31.0508 19.2507 31.4227C19.1912 31.3199 19.1297 31.2172 19.0702 31.1145C19.5236 30.3851 19.9791 29.6578 20.5207 28.7887C19.1215 29.1524 17.8659 29.479 16.6102 29.8057C16.5323 29.6783 16.4564 29.553 16.3784 29.4256C17.275 28.4476 18.1716 27.4697 19.1051 26.4506C16.9159 26.993 14.8191 27.5108 12.7223 28.0306C12.6362 27.8333 12.5521 27.6361 12.4659 27.4388C14.0477 26.1897 15.6295 24.9405 17.2134 23.6913C14.0416 24.168 11.0256 25.4213 7.33674 24.3652L7.33469 24.3631Z" fill="#466D77"/>
<style>
    .wing { fill: #466D77; }
    @media (prefers-color-scheme: dark) {
        .wing { fill: #FFF; }
    }
</style>
</svg>
