<svg width="72" height="75" viewBox="0 0 72 75" fill="none" xmlns="http://www.w3.org/2000/svg">
<path d="M17.1907 57.1011C24.7882 53.4896 31.3087 50.3933 37.8339 47.2921C26.5145 45.9534 14.8152 49.0979 3.60643 42.1252C14.9066 40.8058 25.3412 39.5875 35.7758 38.3692C23.5332 33.7994 9.29018 34.9743 0 23.3403C11.8291 25.4639 23.6582 27.5827 35.4873 29.7063C24.6969 22.2039 10.6654 19.3002 4.37581 4.8443C16.7627 10.9695 28.3658 16.7095 39.9689 22.4446C34.9824 15.4815 26.8511 10.6998 26.5049 0C34.5785 6.63563 42.1087 12.8234 49.9852 19.305C50.3747 16.6998 50.692 14.5762 51.0142 12.4526C54.5966 17.7978 59.184 21.4189 63.7185 25.3965C69.1378 30.1589 72.7009 36.9149 71.8835 44.8507C71.7873 45.7994 71.0997 47.0754 70.3062 47.5088C61.6941 52.2327 58.1357 59.9615 57.2173 69.2648C56.8951 72.5393 55.0823 74.138 51.6393 75C52.1298 73.4013 52.4808 72.2408 52.8703 70.9743C50.192 71.8989 47.653 72.7753 45.1189 73.6469C44.9795 73.4061 44.8352 73.1653 44.6957 72.9246C45.7584 71.2151 46.8259 69.5104 48.0954 67.4735C44.816 68.3258 41.8731 69.0915 38.9303 69.8571C38.7475 69.5586 38.5696 69.2648 38.3869 68.9663C40.4882 66.6742 42.5896 64.382 44.7775 61.9936C39.6467 63.2648 34.7324 64.4783 29.818 65.6966C29.616 65.2343 29.4189 64.7721 29.2169 64.3098C32.9243 61.382 36.6318 58.4543 40.344 55.5265C32.9099 56.6437 25.8413 59.5811 17.1955 57.1059L17.1907 57.1011Z" fill="url(#paint0_linear_16_65)"/>
<defs>
<linearGradient id="paint0_linear_16_65" x1="36" y1="0" x2="36" y2="75" gradientUnits="userSpaceOnUse">
<stop stop-color="#466D77"/>
<stop offset="1" stop-color="#425367"/>
</linearGradient>
</defs>
</svg>
