<svg width="94" height="39" viewBox="0 0 94 39" fill="none" xmlns="http://www.w3.org/2000/svg">
<path d="M15.6165 20.0325H3.4615C3.4234 24.6484 6.30774 27.1873 10.6926 27.1873C13.808 27.1873 15.4236 26.1874 16.0008 26.1874C16.424 26.1874 16.6161 26.4181 16.6161 27.0337L16.5779 27.8797C16.5767 28.0967 16.5099 28.3083 16.3864 28.4867C16.2629 28.6651 16.0883 28.8021 15.8857 28.8796C14.1138 29.6538 12.203 30.0596 10.2695 30.0724C3.57669 30.1488 0 25.9182 0 19.7634C0 13.8402 3.61478 9.95553 9.03813 9.95553C13.6548 9.95553 16.809 13.2249 16.5398 19.1862C16.5369 19.3031 16.5104 19.4182 16.462 19.5246C16.4135 19.631 16.3442 19.7265 16.258 19.8055C16.1718 19.8845 16.0706 19.9453 15.9604 19.9843C15.8502 20.0233 15.7332 20.0397 15.6165 20.0325ZM8.53797 12.4941C6.07745 12.4941 3.76953 14.263 3.5378 17.6094L13.0775 17.5709C13.1164 14.4167 11.2698 12.4941 8.53797 12.4941ZM34.0397 29.6878C33.9199 29.7028 33.7983 29.6902 33.684 29.651C33.5698 29.6118 33.4661 29.547 33.3807 29.4616C33.2953 29.3763 33.2305 29.2725 33.1914 29.1583C33.1522 29.0441 33.1396 28.9224 33.1545 28.8026V19.6098C33.1545 18.8408 33.1164 17.9175 33.0783 17.2629C32.8854 14.7251 31.6547 12.9943 28.8848 12.9943C27.9889 13.02 27.1076 13.2276 26.2944 13.6045C25.4812 13.9814 24.7532 14.5197 24.1545 15.1867V28.8026C24.1695 28.9224 24.157 29.0441 24.1178 29.1584C24.0786 29.2726 24.0139 29.3764 23.9285 29.4618C23.8431 29.5472 23.7393 29.6119 23.6251 29.6511C23.5108 29.6903 23.3891 29.7028 23.2693 29.6878H21.5386C21.4188 29.7027 21.2972 29.69 21.1831 29.6508C21.0689 29.6116 20.9652 29.5468 20.8799 29.4614C20.7946 29.376 20.7299 29.2723 20.6908 29.1581C20.6517 29.044 20.6391 28.9224 20.6541 28.8026V11.3398C20.6431 11.2254 20.6556 11.1100 20.6909 11.0007C20.7261 10.8914 20.7833 10.7904 20.859 10.704C20.9347 10.6176 21.0273 10.5476 21.131 10.4983C21.2348 10.449 21.3475 10.4213 21.4623 10.4172L22.962 10.2628C23.0754 10.2375 23.193 10.2385 23.3059 10.2658C23.4188 10.2931 23.5239 10.346 23.6131 10.4204C23.7024 10.4947 23.7733 10.5886 23.8205 10.6947C23.8677 10.8009 23.8899 10.9164 23.8854 11.0325L23.9235 12.6477C24.6522 11.7835 25.5672 11.0958 26.5999 10.6361C27.6326 10.1764 28.7561 9.95675 29.8858 9.9937C32.8091 9.9937 34.9242 11.3017 35.9245 13.6478C36.5779 15.1478 36.655 17.1093 36.655 19.148V28.8026C36.671 28.9193 36.6605 29.038 36.6242 29.15C36.588 29.262 36.5269 29.3644 36.4455 29.4495C36.3641 29.5346 36.2646 29.6003 36.1543 29.6415C36.0441 29.6828 35.9259 29.6986 35.8086 29.6878H34.0397ZM55.4596 29.7641C55.3521 29.7947 55.2391 29.8001 55.1292 29.7798C55.0193 29.7595 54.9156 29.7142 54.8262 29.6472C54.7367 29.5803 54.664 29.4936 54.6136 29.3939C54.5631 29.2942 54.5364 29.1842 54.5355 29.0725L54.4974 27.418C53.7607 28.2852 52.8396 28.9769 51.8015 29.4427C50.7634 29.9086 49.6344 30.1367 48.4969 30.1106C44.0357 30.1106 40.4202 26.8409 40.4202 20.4942C40.4202 14.148 44.2667 9.99373 50.7285 9.99373C51.9391 9.97898 53.145 10.1475 54.3052 10.4935V1.06994C54.3052 0.531984 54.6125 0.262856 55.1515 0.185481L56.8823 0.0318287C56.9993 0.00056758 57.1223 -0.00139814 57.2403 0.026105C57.3583 0.0536082 57.4677 0.109735 57.5589 0.189531C57.6501 0.269328 57.7202 0.370341 57.7631 0.483657C57.806 0.596973 57.8204 0.719108 57.8049 0.839282V28.7253C57.8189 28.8382 57.8083 28.9529 57.7737 29.0614C57.7392 29.1698 57.6816 29.2696 57.6049 29.3537C57.5282 29.4378 57.4342 29.5043 57.3293 29.5486C57.2244 29.5929 57.1112 29.614 56.9975 29.6105L55.4596 29.7641ZM54.3052 13.4934C53.1246 13.0466 51.8742 12.8124 50.6119 12.8014C46.5746 12.8014 44.0357 15.3403 44.0357 20.0325C44.0357 25.0337 46.6517 27.1489 49.305 27.1489C50.2601 27.1518 51.2039 26.9429 52.0685 26.5372C52.9332 26.1315 53.6971 25.5392 54.3052 24.8028V13.4934ZM65.883 26.9563C65.883 32.9184 64.5365 35.1881 60.7282 38.6108C60.6477 38.697 60.5492 38.7643 60.4397 38.8079C60.3302 38.8515 60.2124 38.8704 60.0948 38.863C59.9771 38.8557 59.8625 38.8224 59.7593 38.7656C59.656 38.7087 59.5667 38.6297 59.4976 38.5342L58.6519 37.649C58.5657 37.5714 58.4967 37.4765 58.4495 37.3706C58.4023 37.2646 58.3779 37.1499 58.3779 37.0339C58.3779 36.9179 58.4023 36.8031 58.4495 36.6972C58.4967 36.5912 58.5657 36.4963 58.6519 36.4188C61.8443 33.0338 62.3826 31.534 62.3826 26.5717V11.5327C62.374 11.3087 62.4538 11.0903 62.6049 10.9247C62.756 10.7591 62.9662 10.6597 63.1901 10.6479L64.9597 10.4935C65.5369 10.4553 65.883 10.7245 65.883 11.3017V26.9563ZM66.4984 3.87801C66.505 4.18951 66.4473 4.49903 66.3288 4.78718C66.2103 5.07533 66.0335 5.3359 65.8096 5.55257C65.5857 5.76924 65.3195 5.93734 65.0276 6.04634C64.7357 6.15534 64.4245 6.2029 64.1134 6.18603C63.7989 6.21081 63.4829 6.16712 63.187 6.05796C62.8911 5.9488 62.6223 5.77677 62.3993 5.55373C62.1763 5.33068 62.0043 5.06193 61.8952 4.766C61.7861 4.47007 61.7425 4.154 61.7673 3.83957C61.7927 3.22595 62.0555 2.64622 62.5004 2.22282C62.9453 1.79942 63.5373 1.56552 64.1514 1.57051C64.7656 1.5755 65.3537 1.81901 65.7916 2.24958C66.2296 2.68016 66.483 3.26409 66.4984 3.87805V3.87801ZM74.3455 3.87801C74.3522 4.18947 74.2946 4.49897 74.1761 4.7871C74.0577 5.07524 73.881 5.33581 73.6572 5.55249C73.4334 5.76917 73.1672 5.93728 72.8754 6.0463C72.5835 6.15532 72.2723 6.20289 71.9612 6.18603C71.6468 6.21081 71.3307 6.16712 71.0348 6.05796C70.7389 5.94879 70.4702 5.77676 70.2472 5.55372C70.0242 5.33067 69.8522 5.06192 69.7431 4.766C69.634 4.47007 69.5904 4.154 69.6152 3.83957C69.6404 3.22593 69.9032 2.6461 70.348 2.22262C70.7928 1.79914 71.3848 1.56518 71.999 1.57018C72.6131 1.57517 73.2013 1.81873 73.6391 2.24939C74.077 2.68005 74.3303 3.26407 74.3455 3.87805V3.87801ZM72.8457 29.6878C72.9655 29.7027 73.0871 29.6901 73.2012 29.6508C73.3153 29.6116 73.419 29.5468 73.5043 29.4614C73.5896 29.3761 73.6543 29.2723 73.6934 29.1581C73.7326 29.044 73.7451 28.9224 73.7301 28.8026V11.3017C73.7301 10.7245 73.384 10.4553 72.8076 10.4935L71.0379 10.6479C70.814 10.6596 70.6037 10.759 70.4525 10.9246C70.3012 11.0902 70.2212 11.3086 70.2297 11.5327V28.8026C70.2148 28.9224 70.2274 29.0441 70.2666 29.1583C70.3058 29.2725 70.3705 29.3763 70.4559 29.4616C70.5413 29.547 70.645 29.6118 70.7592 29.651C70.8735 29.6902 70.9951 29.7028 71.1149 29.6878L72.8457 29.6878ZM91.3848 29.6878C91.265 29.7028 91.1434 29.6901 91.0292 29.6509C90.9151 29.6117 90.8114 29.547 90.726 29.4616C90.6407 29.3762 90.576 29.2724 90.5369 29.1582C90.4978 29.044 90.4853 28.9224 90.5003 28.8026V19.6098C90.5003 18.8408 90.4622 17.9175 90.4233 17.2629C90.2311 14.7251 88.9998 12.9943 86.2306 12.9943C85.3346 13.02 84.4531 13.2276 83.6398 13.6045C82.8266 13.9814 82.0984 14.5197 81.4996 15.1867V28.8026C81.5146 28.9224 81.5021 29.044 81.463 29.1582C81.4239 29.2724 81.3592 29.3762 81.2739 29.4616C81.1885 29.5469 81.0848 29.6117 80.9707 29.6509C80.8565 29.6901 80.7349 29.7028 80.6151 29.6878H78.8836C78.7639 29.7028 78.6422 29.6901 78.5281 29.6509C78.4139 29.6117 78.3102 29.5469 78.2249 29.4616C78.1396 29.3762 78.0749 29.2724 78.0358 29.1582C77.9966 29.044 77.9841 28.9224 77.9992 28.8026V11.3398C77.9881 11.2255 78.0005 11.1101 78.0357 11.0008C78.0709 10.8915 78.128 10.7905 78.2037 10.7041C78.2793 10.6177 78.3718 10.5477 78.4755 10.4983C78.5792 10.449 78.6919 10.4214 78.8066 10.4172L80.3064 10.2628C80.4198 10.2374 80.5374 10.2384 80.6504 10.2657C80.7633 10.293 80.8684 10.3459 80.9576 10.4203C81.0469 10.4946 81.1178 10.5885 81.165 10.6947C81.2122 10.8008 81.2343 10.9164 81.2297 11.0325L81.2686 12.6477C81.9973 11.7836 82.9123 11.0958 83.945 10.6362C84.9777 10.1765 86.1011 9.95682 87.2309 9.9937C90.1542 9.9937 92.2693 11.3017 93.2696 13.6478C93.923 15.1478 94 17.1093 94 19.148V28.8026C94.0161 28.9193 94.0057 29.038 93.9694 29.1501C93.9332 29.2621 93.8721 29.3645 93.7907 29.4496C93.7094 29.5348 93.6098 29.6004 93.4995 29.6416C93.3892 29.6829 93.271 29.6987 93.1537 29.6878L91.3848 29.6878Z" fill="#78C020"/>
</svg>
